# xmcd
#
# Track frame offsets:
#	150
#	12130
#	21365
#	30075
#	42247
#	55595
#	71030
#	83520
#	95122
#	111847
#	124980
#	135092
#	144470
#	154332
#	166737
#	178130
#	193260
#	203620
#	215522
#	226060
#
# Disc length: 3243
#
# Revision: 1
# Processed by: cddbd v1.5.1PL0 Copyright (c) Steve Scherf et al.
# Submitted via: ExactAudioCopy v0.90b4
# Normalized: r0:DSETVAR1
#
DISCID=070ca914
DTITLE=Various Artist - The Country Box
DYEAR=1995
DGENRE=Country
TTITLE0=Roger Miller - Little Green Apples
TTITLE1=The Kendalls - Blue Blue Day
TTITLE2=Jim Reeves - Waiting For A Train
TTITLE3=Billie Jo Spears - You Never Can Tell (C'est La Vie)
TTITLE4=Johnny Russell - Catfish John
TTITLE5=Jo Anne Houston - Always On My Mind
TTITLE6=Johnny Paycheck - Take This Job And Shove It
TTITLE7=Patsy Cline - In Care Of the Blues
TTITLE8=Johnny Cash - The City Of New Orleans
TTITLE9=Lynn Anderson - Rose Garden
TTITLE10=Porter Wagoner - Green Green Grass Of Home
TTITLE11=Jeannie C Riley - The Girl Most Likely
TTITLE12=Hank Locklin - Please Help Me, I'm Falling
TTITLE13=The Kendalls - Pick Me Up On Your Way Down
TTITLE14=George Jones - Talk Back Trembling Lips
TTITLE15=Lynn Anderson - Desperado
TTITLE16=Don Gibson - Lonesome Number One
TTITLE17=Anne Murray - The Last Thing On My Mind
TTITLE18=Patsy Cline - Lovesick Blues
TTITLE19=Charlie Rich - My Elusive Dreams
EXTD=Disc 2 of 3
EXTT0=
EXTT1=
EXTT2=
EXTT3=
EXTT4=
EXTT5=
EXTT6=
EXTT7=
EXTT8=
EXTT9=
EXTT10=
EXTT11=
EXTT12=
EXTT13=
EXTT14=
EXTT15=
EXTT16=
EXTT17=
EXTT18=
EXTT19=
PLAYORDER=
